<svg width="121" height="120" viewBox="0 0 121 120" fill="none" xmlns="http://www.w3.org/2000/svg">
<path fill-rule="evenodd" clip-rule="evenodd" d="M57.7652 10.3881C85.1685 8.87692 108.606 29.8678 110.113 57.2711C111.62 84.6748 90.6235 108.112 63.2193 109.614C35.8223 111.114 12.3944 90.1243 10.8878 62.728C9.3815 35.3307 30.368 11.899 57.7652 10.3881ZM64.2508 55.0777C58.6851 55.0713 53.09 54.9513 47.5279 55.0999C47.4715 57.7096 47.4535 60.3199 47.4725 62.9304C48.3901 63.2618 49.3364 63.4994 50.273 63.7706C51.149 64.0244 52.0211 64.3181 52.9127 64.5137C56.3534 65.267 60.0876 65.1454 63.4412 64.0534L64.4033 63.7428C64.3204 60.8551 64.2695 57.9666 64.2508 55.0777ZM60.5241 15.3265C59.9367 15.3208 59.3476 15.3309 58.7606 15.3543C55.7296 15.5283 53.2419 15.8572 50.2786 16.4606C49.4334 16.6328 48.5699 16.7763 47.7387 17.0096C45.5839 17.6148 42.8339 18.7113 40.8399 19.7242C39.6612 20.3228 38.5365 21.0209 37.396 21.6874C36.5692 22.1701 35.6931 22.6213 34.9116 23.1736C32.0258 25.2127 29.3181 27.6907 26.9702 30.3247C22.4253 35.4233 18.5268 42.6359 17.0074 49.3019C16.6982 50.6589 16.5479 52.078 16.3641 53.4584C16.0593 55.7475 15.8769 58.1143 16.012 60.4238L16.0175 60.5208C19.6667 60.6141 21.1111 59.7466 24.3083 58.5438C28.4467 56.9872 33.8398 56.992 38.0227 58.3802C39.6957 58.9355 41.2797 59.7537 42.8696 60.5097L42.9389 41.807C42.9353 39.6858 42.9429 37.5645 42.9611 35.4434C42.9829 33.7924 42.9084 32.0833 43.3188 30.4717C43.7353 28.8382 44.8632 27.2774 46.0611 26.11C47.6171 24.594 49.8677 23.638 52.0504 23.6838C53.9785 23.7243 55.966 24.5648 57.291 25.9769C58.9759 27.7729 60.5265 29.9155 60.4326 32.4848C60.4004 33.3614 60.2002 34.0934 59.5398 34.7169C59.0565 35.173 58.4295 35.4578 57.7569 35.4184C57.1921 35.3851 56.5845 35.0969 56.2207 34.6587C55.7225 34.0578 55.6273 33.0938 55.3972 32.36C54.9097 30.8084 53.7942 29.1481 52.0476 28.9356C51.0641 28.8162 49.937 29.2992 49.1888 29.9199C48.163 30.7714 47.6618 31.9845 47.5584 33.2944C47.4852 34.2244 47.5387 35.1894 47.5473 36.1227C47.5593 37.4441 47.549 38.7698 47.5889 40.0906L64.2619 40.0934C64.2711 38.4537 64.2599 36.8136 64.2259 35.1744C64.1734 31.3768 64.4118 28.923 67.276 26.1267C68.9489 24.4938 70.8172 23.5539 73.1793 23.6034C75.3335 23.6489 77.3186 24.7701 78.7749 26.3125C79.9955 27.6059 80.6563 28.8905 81.0652 30.5992C81.2294 31.2847 81.3613 31.9871 81.337 32.6955C81.316 33.3119 81.1769 33.9668 80.6909 34.3897C80.2008 34.8162 79.421 34.9321 78.7943 34.8638C78.2682 34.8063 77.675 34.5559 77.3413 34.1291C76.9291 33.6009 76.9602 32.5504 76.7563 31.9025C76.3479 30.6086 75.0294 29.0996 73.6673 28.8413C72.5755 28.6346 71.4143 29.0114 70.5257 29.6454C69.7835 30.1753 69.2217 30.9887 69.0728 31.8969C68.8169 33.4585 68.9094 35.1062 68.9092 36.6856L68.923 43.8811C68.9406 48.5145 68.8716 53.1547 68.9674 57.7868C68.9953 59.1407 68.9827 60.4964 69.0589 61.849C72.2312 60.2077 76.0466 58.2439 79.5873 57.6537C80.9797 57.4216 82.4154 57.3949 83.8242 57.4041C85.7437 57.417 87.5451 57.5917 89.3865 58.1805C90.9353 58.6758 92.3689 59.4172 93.8951 59.9551C97.5968 61.2597 101.194 61.0482 105.025 60.7426C105.047 52.0561 103.802 45.9735 99.5628 38.3382C98.9957 37.3164 98.4771 36.225 97.8519 35.241C97.3352 34.4277 96.7016 33.6759 96.105 32.9201C94.8228 31.2965 93.5141 29.7228 92.0539 28.2534C83.6676 19.9434 72.3304 15.2948 60.5241 15.3265ZM53.3009 44.6048C51.3945 44.6073 49.4649 44.5457 47.5612 44.6214C47.5461 46.5475 47.5497 48.4739 47.5723 50.4C49.7222 50.46 51.8845 50.4083 54.0357 50.4083L64.2702 50.3944L64.2397 44.5881L53.3009 44.6048Z" fill="#176DC6"/>
<path d="M106.152 60.0004C106.152 34.7878 85.7131 14.3489 60.5005 14.3489C35.2878 14.3489 14.8489 34.7878 14.8489 60.0004C14.8489 85.2131 35.2878 105.652 60.5005 105.652V120L58.9521 119.979C27.0452 119.171 1.32976 93.4557 0.521506 61.5488L0.500488 60.0004C0.500488 26.8634 27.3634 0.000427246 60.5005 0.000427246L62.0488 0.0214455C94.4703 0.842732 120.5 27.3811 120.5 60.0004L120.479 61.5488C119.658 93.9702 93.1199 120 60.5005 120V105.652C85.7131 105.652 106.152 85.2131 106.152 60.0004Z" fill="#176DC6"/>
<path d="M19.3068 77.8996C20.3351 77.6121 21.3637 77.328 22.3758 76.9866C24.4104 76.3003 26.5126 75.4731 28.6505 75.1775C31.0452 74.8467 33.9442 74.8616 36.2749 75.4921C38.5824 76.1164 40.5164 77.2504 42.5996 78.3642C43.824 79.0187 45.065 79.7056 46.3296 80.2778C47.1311 80.6401 47.9759 80.9167 48.8059 81.2075C51.4861 82.1467 53.8939 82.7266 56.7529 82.7794C60.0887 82.8409 62.8044 82.2168 65.9472 81.1544C66.8657 80.8438 67.82 80.5596 68.7014 80.1537C70.2862 79.4243 71.8526 78.5994 73.3919 77.7775C75.0859 76.8729 76.683 75.9667 78.5466 75.4326C79.9066 75.0426 81.4299 74.8694 82.8421 74.8255C84.6912 74.7682 86.747 74.9641 88.5134 75.525C90.6131 76.1921 92.5848 77.2079 94.6873 77.8736C96.7157 78.5158 98.9453 78.8257 101.06 79.0388C100.46 80.4029 99.7177 81.6877 98.9914 82.9873C98.5458 83.7843 98.1307 84.6162 97.6192 85.3727C97.1789 86.0236 96.6777 86.6206 96.1668 87.2159C95.6947 88.0319 94.7362 89.0605 94.1087 89.7871C92.0328 92.1908 90.0678 93.9161 87.5555 95.8369C86.7548 96.449 85.9581 97.084 85.1063 97.6246C83.6031 98.5791 81.9342 99.4186 80.3597 100.254C77.2672 101.895 73.6855 103.264 70.2401 103.921C68.8715 104.182 67.4758 104.315 66.0913 104.464C61.8308 104.924 58.5212 104.886 54.285 104.352C52.0023 104.065 49.823 103.745 47.6178 103.07C45.5664 102.443 43.4008 101.661 41.4838 100.697C40.4169 100.16 39.4057 99.5041 38.3606 98.9258C37.3018 98.3397 36.2092 97.8173 35.2032 97.1407C34.3766 96.5845 33.5975 95.9286 32.8181 95.3078C30.2588 93.2694 28.1156 91.3815 26.0084 88.8519C25.1759 87.8526 24.1598 86.7058 23.5505 85.5593C22.8767 84.7134 22.3828 83.7158 21.8517 82.7772C20.9385 81.1639 20.0432 79.6073 19.3068 77.8996Z" fill="#4ABCF9"/>
<path d="M19.3068 77.8996C20.3351 77.6121 21.3637 77.328 22.3758 76.9866C24.4104 76.3003 26.5126 75.4731 28.6505 75.1775C31.0452 74.8467 33.9442 74.8616 36.2749 75.4921C38.5824 76.1164 40.5164 77.2504 42.5996 78.3642C43.824 79.0187 45.065 79.7056 46.3296 80.2778C47.1311 80.6401 47.9759 80.9167 48.8059 81.2075C51.4861 82.1467 53.8939 82.7266 56.7529 82.7794C60.0887 82.8409 62.8044 82.2168 65.9472 81.1544C66.8657 80.8437 67.82 80.5596 68.7014 80.1537C70.2862 79.4243 71.8526 78.5994 73.3919 77.7775C75.0859 76.8729 76.683 75.9667 78.5466 75.4326C79.9066 75.0426 81.4299 74.8694 82.8421 74.8255C84.6912 74.7682 86.747 74.9641 88.5134 75.525C90.6131 76.1921 92.5848 77.2079 94.6873 77.8736C96.7157 78.5158 98.9453 78.8257 101.06 79.0388C100.46 80.4029 99.7177 81.6877 98.9914 82.9873C98.5458 83.7843 98.1307 84.6162 97.6192 85.3727C97.1789 86.0236 96.6777 86.6206 96.1668 87.2159C95.6075 86.8268 94.8652 86.6181 94.2403 86.3485C92.9801 85.8057 91.7632 85.2062 90.4589 84.7668C83.94 82.571 80.4111 83.0267 74.3068 85.8985C73.4617 86.2957 72.5873 86.6407 71.7579 87.0701C70.6192 87.6593 69.5328 88.3476 68.3813 88.9127C61.8864 92.1628 54.2624 92.2662 47.6817 89.1932C46.3855 88.5962 45.1664 87.8679 43.9003 87.2137C43.1293 86.815 42.3239 86.4862 41.5344 86.1259C40.3896 85.6035 39.2467 85.0473 38.0541 84.6408C33.2891 83.0127 28.0723 83.3432 23.5505 85.5593C22.8767 84.7134 22.3828 83.7158 21.8517 82.7772C20.9385 81.1639 20.0432 79.6073 19.3068 77.8996Z" fill="#7DD9FE"/>
<path d="M30.2024 62.2846C32.9418 61.9298 37.1286 62.9238 39.6521 64.0434C40.6273 64.4762 41.5459 65.0514 42.4901 65.5481C44.1132 66.4023 45.826 67.225 47.5261 67.9114C50.0208 68.9185 52.546 69.5253 55.2306 69.7463C59.7373 70.1173 64.1126 69.1283 68.236 67.3468C69.8096 66.6672 71.3472 65.8383 72.8913 65.0885C73.8157 64.6393 74.7186 64.1258 75.6611 63.7166C77.3725 62.9738 79.4504 62.4715 81.295 62.2983C84.4462 62.0024 87.691 62.6377 90.648 63.7275C92.2711 64.3256 93.8028 65.0178 95.5055 65.3905C98.5159 66.0492 101.577 65.8981 104.628 65.7375C104.375 68.7973 103.814 71.5903 102.87 74.5063C100.191 74.1235 97.5348 73.9062 94.9345 73.0882C93.3857 72.6013 91.9149 71.9071 90.4134 71.2956C80.0991 67.6692 75.351 72.1337 66.5246 75.9726C63.6252 77.2336 60.9385 78.0452 57.7527 78.1664C52.1348 78.3801 47.282 75.6631 42.4259 73.2332C40.5673 72.3035 38.7361 71.3978 36.7227 70.85C34.3506 70.2047 31.8227 70.0809 29.3769 70.2846C26.6118 70.5151 24.0922 71.5559 21.4838 72.4021C20.2471 72.7983 18.9908 73.1318 17.7203 73.4014C16.8236 70.7897 16.4768 68.0615 16.1066 65.3357C17.807 65.3067 19.4993 65.1204 21.1444 64.6798C22.1325 64.4155 23.0958 64.0311 24.0637 63.7006C26.0271 63.0296 28.1298 62.429 30.2024 62.2846Z" fill="#7DD9FE"/>
</svg>
