<svg width="46" height="46" viewBox="0 0 46 46" fill="none" xmlns="http://www.w3.org/2000/svg">
<path d="M45.4192 23.0039C45.4192 35.4303 35.3456 45.5039 22.9192 45.5039C10.4928 45.5039 0.419189 35.4303 0.419189 23.0039C0.419189 10.5775 10.4928 0.50386 22.9192 0.50386C35.3456 0.50386 45.4192 10.5775 45.4192 23.0039Z" fill="#BAD3EE"/>
<path d="M14.4922 20.2831C14.803 14.5301 17.5255 11.1434 23.1738 10.852C28.0267 11.1794 30.8072 14.3811 31.3246 20.1918C31.8053 27.257 29.7056 29.1618 23.0064 29.3864C16.0554 29.365 13.984 26.8261 14.4922 20.2831Z" fill="#176DC6"/>
<path d="M36.4973 40.9684C27.9279 46.944 18.0187 47.0428 9.39258 40.9684C12.5047 34.924 16.6032 31.9897 23.0111 31.8156C29.5604 31.8969 34.0332 35.7528 36.4973 40.9684Z" fill="#176DC6"/>
</svg>
