<svg width="116" height="30" viewBox="0 0 116 30" fill="none" xmlns="http://www.w3.org/2000/svg">
<path d="M39.1889 15.9616V27.4261H34.5777V7.86005H38.9851V11.1847H39.2144C39.6645 10.0893 40.3821 9.2188 41.3672 8.57339C42.3608 7.92799 43.5879 7.60528 45.0486 7.60528C46.3988 7.60528 47.575 7.89402 48.5771 8.47149C49.5877 9.04896 50.3689 9.88544 50.9209 10.9809C51.4814 12.0764 51.7574 13.4055 51.7489 14.968V27.4261H47.1376V15.6814C47.1376 14.3736 46.798 13.3503 46.1186 12.6114C45.4477 11.8726 44.5178 11.5032 43.3289 11.5032C42.5221 11.5032 41.8045 11.6815 41.1761 12.0382C40.5562 12.3864 40.0679 12.8917 39.7112 13.5541C39.363 14.2165 39.1889 15.019 39.1889 15.9616Z" fill="#176DC6"/>
<path d="M63.6975 27.77C62.1604 27.77 60.7846 27.3752 59.5702 26.5854C58.3559 25.7956 57.3962 24.6492 56.6914 23.146C55.9865 21.6429 55.6341 19.8171 55.6341 17.6686C55.6341 15.4945 55.9908 13.6602 56.7041 12.1656C57.426 10.6625 58.3983 9.52877 59.6212 8.76447C60.8441 7.99168 62.2071 7.60528 63.7102 7.60528C64.8566 7.60528 65.7993 7.8006 66.5381 8.19124C67.2769 8.57339 67.8629 9.03622 68.296 9.57972C68.7291 10.1147 69.0645 10.62 69.3023 11.0956H69.4934V1.33803H74.1174V27.4261H69.5826V24.3434H69.3023C69.0645 24.819 68.7206 25.3243 68.2705 25.8593C67.8204 26.3858 67.226 26.8359 66.4872 27.2096C65.7483 27.5832 64.8184 27.77 63.6975 27.77ZM64.984 23.9868C65.9606 23.9868 66.7929 23.7235 67.4807 23.197C68.1686 22.662 68.6909 21.9189 69.0476 20.9678C69.4042 20.0167 69.5826 18.9084 69.5826 17.6431C69.5826 16.3777 69.4042 15.278 69.0476 14.3439C68.6994 13.4097 68.1814 12.6836 67.4935 12.1656C66.8141 11.6476 65.9776 11.3886 64.984 11.3886C63.9565 11.3886 63.0988 11.6561 62.4109 12.1911C61.723 12.7261 61.205 13.4649 60.8568 14.4075C60.5086 15.3502 60.3345 16.4287 60.3345 17.6431C60.3345 18.866 60.5086 19.9572 60.8568 20.9168C61.2135 21.868 61.7358 22.6195 62.4236 23.1715C63.12 23.715 63.9735 23.9868 64.984 23.9868Z" fill="#176DC6"/>
<path d="M84.6615 27.821C83.4217 27.821 82.305 27.6002 81.3114 27.1586C80.3263 26.7085 79.545 26.0461 78.9675 25.1714C78.3985 24.2967 78.1141 23.2182 78.1141 21.9359C78.1141 20.8319 78.3179 19.919 78.7255 19.1972C79.1331 18.4753 79.6894 17.8978 80.3942 17.4647C81.0991 17.0316 81.8931 16.7047 82.7763 16.4839C83.668 16.2546 84.5894 16.089 85.5405 15.9871C86.6869 15.8682 87.6168 15.7621 88.3302 15.6686C89.0435 15.5667 89.5616 15.4139 89.8843 15.2101C90.2155 14.9978 90.3811 14.6708 90.3811 14.2292V14.1528C90.3811 13.1932 90.0966 12.4501 89.5276 11.9236C88.9586 11.3971 88.1391 11.1338 87.0691 11.1338C85.9396 11.1338 85.0437 11.3801 84.3813 11.8726C83.7274 12.3652 83.2858 12.9469 83.0565 13.6178L78.751 13.0063C79.0907 11.8174 79.6511 10.8238 80.4324 10.0256C81.2137 9.2188 82.1691 8.61585 83.2985 8.21672C84.428 7.80909 85.6764 7.60528 87.0436 7.60528C87.9863 7.60528 88.9246 7.71568 89.8588 7.93648C90.7929 8.15727 91.6464 8.52244 92.4192 9.03197C93.192 9.53301 93.8119 10.2166 94.279 11.0828C94.7545 11.949 94.9923 13.0318 94.9923 14.3311V27.4261H90.5594V24.7383H90.4065C90.1263 25.2818 89.7314 25.7914 89.2219 26.2669C88.7208 26.734 88.0882 27.1119 87.3239 27.4006C86.5681 27.6809 85.6806 27.821 84.6615 27.821ZM85.859 24.4326C86.7846 24.4326 87.5871 24.25 88.2665 23.8849C88.9459 23.5112 89.4681 23.0186 89.8333 22.4072C90.207 21.7958 90.3938 21.1291 90.3938 20.4073V18.1017C90.2494 18.2205 90.0032 18.3309 89.655 18.4329C89.3153 18.5348 88.9331 18.6239 88.5085 18.7004C88.0839 18.7768 87.6635 18.8447 87.2474 18.9042C86.8313 18.9636 86.4704 19.0146 86.1647 19.057C85.4768 19.1504 84.8611 19.3033 84.3176 19.5156C83.7741 19.7279 83.3453 20.0251 83.031 20.4073C82.7168 20.7809 82.5597 21.265 82.5597 21.8595C82.5597 22.7087 82.8697 23.3498 83.4896 23.7829C84.1096 24.216 84.8993 24.4326 85.859 24.4326Z" fill="#176DC6"/>
<path d="M115.093 13.0318L110.89 13.4904C110.771 13.0658 110.563 12.6666 110.266 12.293C109.977 11.9193 109.586 11.6179 109.094 11.3886C108.601 11.1593 107.998 11.0446 107.285 11.0446C106.325 11.0446 105.518 11.2527 104.865 11.6688C104.219 12.0849 103.901 12.6242 103.909 13.2866C103.901 13.8555 104.109 14.3184 104.533 14.675C104.966 15.0317 105.68 15.3247 106.673 15.554L110.011 16.2673C111.862 16.6665 113.238 17.2991 114.138 18.1653C115.047 19.0316 115.505 20.1653 115.514 21.5665C115.505 22.7978 115.144 23.8849 114.431 24.8275C113.726 25.7616 112.745 26.492 111.488 27.0185C110.232 27.545 108.788 27.8083 107.157 27.8083C104.763 27.8083 102.835 27.3072 101.374 26.3051C99.9136 25.2946 99.0431 23.8891 98.7629 22.0888L103.259 21.6556C103.463 22.5388 103.896 23.2055 104.559 23.6556C105.221 24.1056 106.083 24.3307 107.145 24.3307C108.24 24.3307 109.119 24.1056 109.782 23.6556C110.452 23.2055 110.788 22.6492 110.788 21.9868C110.788 21.4264 110.571 20.9635 110.138 20.5984C109.714 20.2332 109.051 19.953 108.151 19.7576L104.814 19.057C102.937 18.6664 101.548 18.0082 100.648 17.0826C99.748 16.1484 99.3021 14.968 99.3106 13.5413C99.3021 12.3354 99.6291 11.2909 100.291 10.4077C100.962 9.51603 101.892 8.82816 103.081 8.3441C104.279 7.85156 105.659 7.60528 107.221 7.60528C109.514 7.60528 111.319 8.09358 112.635 9.07019C113.96 10.0468 114.779 11.3673 115.093 13.0318Z" fill="#176DC6"/>
<path fill-rule="evenodd" clip-rule="evenodd" d="M15.2058 2.60078C22.0566 2.22298 27.916 7.47069 28.2928 14.3215C28.6695 21.1724 23.4203 27.0316 16.5693 27.4072C9.72004 27.7824 3.86305 22.5348 3.48642 15.6857C3.10984 8.83643 8.35648 2.97851 15.2058 2.60078ZM16.8272 13.7732C15.4357 13.7716 14.037 13.7416 12.6464 13.7787C12.6323 14.4312 12.6278 15.0837 12.6326 15.7364C12.862 15.8192 13.0986 15.8786 13.3327 15.9464C13.5517 16.0099 13.7697 16.0833 13.9927 16.1322C14.8528 16.3205 15.7864 16.2901 16.6248 16.0171L16.8653 15.9395C16.8446 15.2175 16.8319 14.4954 16.8272 13.7732ZM15.8955 3.83538C15.7486 3.83395 15.6014 3.83649 15.4546 3.84232C14.6969 3.88582 14.0749 3.96805 13.3341 4.11891C13.1228 4.16195 12.9069 4.19782 12.6991 4.25616C12.1605 4.40745 11.473 4.68157 10.9744 4.93481C10.6798 5.08446 10.3986 5.25899 10.1135 5.4256C9.90677 5.54628 9.68774 5.65909 9.49236 5.79716C8.77091 6.30694 8.09398 6.92642 7.50702 7.58494C6.37078 8.85958 5.39616 10.6627 5.01632 12.3292C4.93901 12.6685 4.90144 13.0232 4.8555 13.3684C4.7793 13.9406 4.7337 14.5323 4.76746 15.1097L4.76885 15.134C5.68114 15.1573 6.04223 14.9404 6.84154 14.6397C7.87615 14.2506 9.22442 14.2518 10.2701 14.5988C10.6884 14.7376 11.0844 14.9422 11.4819 15.1312L11.4992 10.4555C11.4983 9.92521 11.5002 9.39489 11.5047 8.8646C11.5102 8.45185 11.4916 8.02458 11.5942 7.62168C11.6983 7.2133 11.9803 6.82312 12.2797 6.53126C12.6687 6.15226 13.2314 5.91326 13.7771 5.92471C14.2591 5.93484 14.756 6.14496 15.0872 6.49799C15.5084 6.94699 15.8961 7.48263 15.8726 8.12494C15.8646 8.34411 15.8145 8.52709 15.6494 8.68298C15.5286 8.797 15.3718 8.8682 15.2037 8.85836C15.0625 8.85003 14.9106 8.77798 14.8196 8.66842C14.6951 8.5182 14.6713 8.27719 14.6138 8.09375C14.4919 7.70586 14.213 7.29079 13.7764 7.23764C13.5305 7.20781 13.2487 7.32855 13.0617 7.48373C12.8052 7.6966 12.6799 7.99988 12.6541 8.32736C12.6358 8.55985 12.6491 8.8011 12.6513 9.03443C12.6543 9.36477 12.6517 9.69621 12.6617 10.0264L16.8299 10.0271C16.8322 9.61717 16.8294 9.20715 16.8209 8.79735C16.8078 7.84796 16.8674 7.23451 17.5835 6.53542C18.0017 6.12719 18.4688 5.89224 19.0593 5.90461C19.5978 5.91599 20.0941 6.19628 20.4582 6.58187C20.7633 6.90523 20.9285 7.22637 21.0308 7.65356C21.0718 7.82494 21.1048 8.00053 21.0987 8.17763C21.0935 8.33174 21.0587 8.49546 20.9372 8.60118C20.8147 8.70781 20.6197 8.73678 20.463 8.71972C20.3315 8.70533 20.1832 8.64272 20.0998 8.53602C19.9967 8.40399 20.0045 8.14136 19.9535 7.97937C19.8514 7.6559 19.5218 7.27865 19.1813 7.21407C18.9083 7.1624 18.618 7.25662 18.3959 7.4151C18.2103 7.54759 18.0699 7.75094 18.0327 7.97799C17.9687 8.36837 17.9918 8.7803 17.9918 9.17515L17.9952 10.974C17.9996 12.1324 17.9824 13.2924 18.0063 14.4505C18.0133 14.7889 18.0101 15.1279 18.0292 15.466C18.8223 15.0557 19.7761 14.5647 20.6613 14.4172C21.0094 14.3591 21.3683 14.3525 21.7205 14.3548C22.2004 14.358 22.6508 14.4017 23.1111 14.5489C23.4983 14.6727 23.8567 14.858 24.2382 14.9925C25.1637 15.3187 26.0629 15.2658 27.0208 15.1894C27.0261 13.0178 26.7149 11.4971 25.6552 9.5883C25.5134 9.33285 25.3837 9.06001 25.2274 8.81399C25.0983 8.61067 24.9399 8.42272 24.7907 8.23378C24.4702 7.82788 24.143 7.43446 23.778 7.06711C21.6814 4.98961 18.8471 3.82745 15.8955 3.83538ZM14.0897 11.1549C13.6131 11.1556 13.1307 11.1402 12.6548 11.1591C12.651 11.6406 12.6519 12.1222 12.6575 12.6038C13.195 12.6188 13.7356 12.6058 14.2734 12.6058L16.832 12.6024L16.8244 11.1508L14.0897 11.1549Z" fill="#176DC6"/>
<path d="M27.3025 15.0039C27.3025 8.7007 22.1927 3.59097 15.8896 3.59097C9.58643 3.59097 4.4767 8.7007 4.4767 15.0039C4.4767 21.307 9.58643 26.4168 15.8896 26.4168V30.0039L15.5025 29.9986C7.52577 29.7966 1.09691 23.3677 0.894842 15.3909L0.889587 15.0039C0.889587 6.71959 7.60532 0.00386047 15.8896 0.00386047L16.2767 0.00911503C24.382 0.214437 30.8896 6.84902 30.8896 15.0039L30.8843 15.3909C30.679 23.4963 24.0444 30.0039 15.8896 30.0039V26.4168C22.1927 26.4167 27.3025 21.307 27.3025 15.0039Z" fill="#176DC6"/>
<path d="M5.59116 19.4786C5.84824 19.4068 6.10539 19.3357 6.35842 19.2504C6.86707 19.0788 7.39261 18.872 7.9271 18.7981C8.52577 18.7154 9.25051 18.7191 9.83318 18.8768C10.4101 19.0329 10.8936 19.3163 11.4144 19.5948C11.7205 19.7584 12.0307 19.9302 12.3469 20.0732C12.5472 20.1638 12.7584 20.2329 12.9659 20.3056C13.636 20.5404 14.2379 20.6854 14.9527 20.6986C15.7866 20.714 16.4656 20.5579 17.2513 20.2923C17.4809 20.2147 17.7195 20.1437 17.9398 20.0422C18.336 19.8598 18.7276 19.6536 19.1124 19.4481C19.5359 19.222 19.9352 18.9954 20.4011 18.8619C20.7411 18.7644 21.1219 18.7211 21.475 18.7101C21.9373 18.6958 22.4512 18.7448 22.8928 18.885C23.4177 19.0518 23.9107 19.3057 24.4363 19.4721C24.9434 19.6327 25.5008 19.7102 26.0295 19.7634C25.8794 20.1045 25.6939 20.4257 25.5123 20.7506C25.4009 20.9498 25.2971 21.1578 25.1693 21.3469C25.0592 21.5097 24.9339 21.6589 24.8062 21.8077C24.6881 22.0117 24.4485 22.2689 24.2916 22.4505C23.7727 23.0514 23.2814 23.4828 22.6533 23.963C22.4532 24.116 22.254 24.2747 22.041 24.4099C21.6652 24.6485 21.248 24.8584 20.8544 25.0673C20.0813 25.4775 19.1858 25.8198 18.3245 25.984C17.9824 26.0492 17.6334 26.0824 17.2873 26.1198C16.2222 26.2347 15.3948 26.2252 14.3357 26.0918C13.765 26.0199 13.2202 25.9401 12.6689 25.7713C12.1561 25.6144 11.6147 25.4189 11.1354 25.178C10.8687 25.0438 10.6159 24.8798 10.3546 24.7352C10.0899 24.5887 9.81677 24.4581 9.56528 24.2889C9.35862 24.1499 9.16383 23.9859 8.96898 23.8307C8.32917 23.3211 7.79336 22.8491 7.26655 22.2167C7.05843 21.9669 6.80442 21.6802 6.6521 21.3936C6.48364 21.1821 6.36017 20.9327 6.2274 20.698C5.99909 20.2947 5.77525 19.9056 5.59116 19.4786Z" fill="#4ABCF9"/>
<path d="M5.59116 19.4786C5.84824 19.4068 6.10539 19.3357 6.35842 19.2504C6.86707 19.0788 7.39261 18.872 7.9271 18.7981C8.52577 18.7154 9.2505 18.7191 9.83318 18.8768C10.4101 19.0329 10.8936 19.3163 11.4144 19.5948C11.7205 19.7584 12.0307 19.9302 12.3469 20.0732C12.5472 20.1638 12.7584 20.2329 12.9659 20.3056C13.636 20.5404 14.2379 20.6854 14.9527 20.6986C15.7866 20.714 16.4656 20.5579 17.2513 20.2923C17.4809 20.2147 17.7195 20.1437 17.9398 20.0422C18.336 19.8598 18.7276 19.6536 19.1124 19.4481C19.5359 19.222 19.9352 18.9954 20.4011 18.8619C20.7411 18.7644 21.1219 18.7211 21.475 18.7101C21.9373 18.6958 22.4512 18.7448 22.8928 18.885C23.4177 19.0518 23.9107 19.3057 24.4363 19.4721C24.9434 19.6327 25.5008 19.7102 26.0295 19.7634C25.8794 20.1045 25.6939 20.4257 25.5123 20.7506C25.4009 20.9498 25.2971 21.1578 25.1693 21.3469C25.0592 21.5097 24.9339 21.6589 24.8062 21.8077C24.6663 21.7104 24.4808 21.6583 24.3245 21.5909C24.0095 21.4552 23.7053 21.3053 23.3792 21.1954C21.7495 20.6465 20.8672 20.7604 19.3412 21.4784C19.1299 21.5777 18.9113 21.6639 18.7039 21.7713C18.4193 21.9186 18.1477 22.0906 17.8598 22.2319C16.2361 23.0444 14.3301 23.0703 12.6849 22.3021C12.3608 22.1528 12.0561 21.9707 11.7395 21.8072C11.5468 21.7075 11.3454 21.6253 11.1481 21.5352C10.8619 21.4046 10.5761 21.2656 10.278 21.1639C9.08673 20.7569 7.78253 20.8395 6.6521 21.3936C6.48364 21.1821 6.36017 20.9327 6.2274 20.698C5.99909 20.2947 5.77525 19.9056 5.59116 19.4786Z" fill="#7DD9FE"/>
<path d="M8.31507 15.5749C8.99992 15.4862 10.0466 15.7347 10.6775 16.0146C10.9213 16.1228 11.1509 16.2666 11.387 16.3908C11.7928 16.6043 12.221 16.81 12.646 16.9816C13.2697 17.2334 13.901 17.3851 14.5721 17.4403C15.6988 17.5331 16.7926 17.2858 17.8235 16.8405C18.2169 16.6706 18.6013 16.4633 18.9873 16.2759C19.2184 16.1636 19.4441 16.0352 19.6798 15.9329C20.1076 15.7472 20.6271 15.6216 21.0882 15.5783C21.876 15.5044 22.6872 15.6632 23.4265 15.9356C23.8322 16.0852 24.2152 16.2582 24.6409 16.3514C25.3934 16.5161 26.1587 16.4783 26.9214 16.4381C26.8582 17.2031 26.7179 17.9013 26.482 18.6303C25.8121 18.5346 25.1482 18.4803 24.4981 18.2758C24.1109 18.1541 23.7432 17.9805 23.3678 17.8277C20.7892 16.9211 19.6022 18.0372 17.3956 18.9969C16.6708 19.3122 15.9991 19.5151 15.2026 19.5454C13.7982 19.5988 12.585 18.9195 11.3709 18.3121C10.9063 18.0796 10.4485 17.8532 9.94514 17.7163C9.35213 17.5549 8.72014 17.524 8.10869 17.5749C7.41741 17.6325 6.78752 17.8927 6.13543 18.1043C5.82624 18.2033 5.51217 18.2867 5.19454 18.3541C4.97036 17.7012 4.88367 17.0191 4.79111 16.3377C5.21621 16.3304 5.63928 16.2838 6.05057 16.1737C6.2976 16.1076 6.5384 16.0115 6.7804 15.9289C7.27124 15.7612 7.79693 15.611 8.31507 15.5749Z" fill="#7DD9FE"/>
</svg>
